<svg width="301" height="96" viewBox="0 0 301 96" fill="none" xmlns="http://www.w3.org/2000/svg">
<path d="M98.56 72.6C95.96 72.6 93.96 71.7 92.56 69.9C91.2 68.1 90.52 65.44 90.52 61.92V47.58C90.52 44.26 91.2 41.62 92.56 39.66C93.96 37.7 95.96 36.72 98.56 36.72C101 36.72 103.28 37.64 105.4 39.48V23.4H115.18V72H105.4V69.3C103.12 71.5 100.84 72.6 98.56 72.6ZM102.82 66.36C103.58 66.36 104.44 66.06 105.4 65.46V43.56C104.44 43.04 103.6 42.78 102.88 42.78C102.04 42.78 101.4 43.14 100.96 43.86C100.56 44.54 100.36 45.44 100.36 46.56V62.52C100.36 63.68 100.56 64.62 100.96 65.34C101.36 66.02 101.98 66.36 102.82 66.36ZM128.616 23.4H140.856L149.916 72H140.016L138.396 61.74H131.256L129.576 72H119.436L128.616 23.4ZM137.376 55.32L134.796 36.36L132.216 55.32H137.376ZM154.283 37.32H164.063V39.84C165.183 38.8 166.403 38.02 167.723 37.5C169.043 36.98 170.323 36.72 171.563 36.72C174.083 36.72 175.943 37.66 177.143 39.54C178.383 41.42 179.003 43.88 179.003 46.92V61.86C179.003 65.18 178.343 67.8 177.023 69.72C175.703 71.64 173.843 72.6 171.443 72.6C169.003 72.6 166.543 71.52 164.063 69.36V83.4H154.283V37.32ZM166.643 66.3C167.523 66.3 168.163 65.94 168.563 65.22C169.003 64.5 169.223 63.56 169.223 62.4V46.2C169.223 45.16 169.023 44.3 168.623 43.62C168.223 42.94 167.623 42.6 166.823 42.6C165.863 42.6 164.943 43 164.063 43.8V65.4C164.983 66 165.843 66.3 166.643 66.3Z" fill="#13F52A"/>
<path d="M184.576 37.32H194.356V39.84C195.476 38.8 196.696 38.02 198.016 37.5C199.336 36.98 200.616 36.72 201.856 36.72C204.376 36.72 206.236 37.66 207.436 39.54C208.676 41.42 209.296 43.88 209.296 46.92V61.86C209.296 65.18 208.636 67.8 207.316 69.72C205.996 71.64 204.136 72.6 201.736 72.6C199.296 72.6 196.836 71.52 194.356 69.36V83.4H184.576V37.32ZM196.936 66.3C197.816 66.3 198.456 65.94 198.856 65.22C199.296 64.5 199.516 63.56 199.516 62.4V46.2C199.516 45.16 199.316 44.3 198.916 43.62C198.516 42.94 197.916 42.6 197.116 42.6C196.156 42.6 195.236 43 194.356 43.8V65.4C195.276 66 196.136 66.3 196.936 66.3ZM226.269 72.6C222.469 72.6 219.489 71.64 217.329 69.72C215.209 67.8 214.149 64.98 214.149 61.26V48.06C214.149 44.34 215.209 41.52 217.329 39.6C219.489 37.68 222.469 36.72 226.269 36.72C230.069 36.72 233.049 37.7 235.209 39.66C237.369 41.58 238.449 44.38 238.449 48.06V61.26C238.449 64.94 237.369 67.76 235.209 69.72C233.049 71.64 230.069 72.6 226.269 72.6ZM226.329 66.12C227.249 66.12 227.889 65.78 228.249 65.1C228.609 64.38 228.789 63.32 228.789 61.92V47.4C228.789 46 228.609 44.96 228.249 44.28C227.889 43.56 227.249 43.2 226.329 43.2C225.409 43.2 224.749 43.56 224.349 44.28C223.989 45 223.809 46.04 223.809 47.4V61.92C223.809 63.32 223.989 64.38 224.349 65.1C224.749 65.78 225.409 66.12 226.329 66.12ZM244.293 23.4H254.013V72H244.293V23.4ZM260.757 23.4H270.477V72H260.757V23.4ZM277.762 75.3C279.682 75.3 281.082 75.08 281.962 74.64C282.882 74.24 283.342 73.48 283.342 72.36C283.342 71.36 282.922 69.42 282.082 66.54L273.922 37.32H283.102L287.482 57.36L290.782 37.32H300.022L292.042 72.84C291.282 76.24 289.902 78.62 287.902 79.98C285.902 81.38 283.262 82.08 279.982 82.08H277.762V75.3Z" fill="#480EED"/>
<circle cx="42.5" cy="53.5" r="40" fill="white" stroke="black" stroke-width="5"/>
<mask id="path-3-inside-1" fill="white">
<path d="M27 23H54C55.6569 23 57 24.3431 57 26V37C57 38.6569 55.6569 40 54 40H27V23Z"/>
</mask>
<path d="M27 23H54C55.6569 23 57 24.3431 57 26V37C57 38.6569 55.6569 40 54 40H27V23Z" fill="#480EED" fill-opacity="0.4" stroke="black" stroke-width="10" mask="url(#path-3-inside-1)"/>
<mask id="path-4-inside-2" fill="white">
<path d="M27 45H69C70.6569 45 72 46.3431 72 48V59C72 60.6569 70.6569 62 69 62H27V45Z"/>
</mask>
<path d="M27 45H69C70.6569 45 72 46.3431 72 48V59C72 60.6569 70.6569 62 69 62H27V45Z" fill="#13F52A" stroke="black" stroke-width="10" mask="url(#path-4-inside-2)"/>
<mask id="path-5-inside-3" fill="white">
<path d="M27 67H47C48.6569 67 50 68.3431 50 70V81C50 82.6569 48.6569 84 47 84H27V67Z"/>
</mask>
<path d="M27 67H47C48.6569 67 50 68.3431 50 70V81C50 82.6569 48.6569 84 47 84H27V67Z" fill="#480EED" fill-opacity="0.4" stroke="black" stroke-width="10" mask="url(#path-5-inside-3)"/>
<rect x="27" y="23" width="5" height="61" fill="black"/>
</svg>
